<svg width="774" height="317" viewBox="0 0 774 317" fill="none" xmlns="http://www.w3.org/2000/svg">
<path d="M175.41 79.0304C173.997 79.0304 172.268 79.8778 170.323 81.2912C168.21 82.7041 166.367 84.3658 164.954 86.6605L122 158.157H139.521L175.41 99.6598L189.257 122.55H168.345L159.868 136.114H197.452L210.734 158.157H228.538L186.431 86.6605C184.837 84.1849 183.074 82.139 180.779 80.726C178.654 79.4826 177.004 78.8496 175.41 79.0304ZM549.847 79.0304C548.434 79.0304 546.704 79.8778 544.76 81.2912C542.646 82.7041 540.804 84.3658 539.391 86.6605L496.436 158.157H514.24L549.847 99.6598L563.694 122.55H542.782L534.304 136.114H571.889L585.171 158.157H602.974L560.868 86.6605C559.274 84.1849 557.511 82.139 555.216 80.726C553.091 79.4826 551.441 78.8496 549.847 79.0304ZM231.364 79.3126V158.439H299.751V144.592H245.211V79.3126H231.364ZM308.512 79.3126V158.439H322.359V93.1597H367.574C372.694 93.1597 376.436 94.5726 379.443 97.3986C382.269 100.224 383.682 103.796 383.682 107.855C383.682 111.743 382.269 115.089 379.443 117.745C376.436 120.922 372.525 122.549 367.574 122.549H330.554V136.114H365.313C375.385 136.114 383.229 133.175 389.051 127.353C394.352 122.052 396.964 115.632 396.964 107.855C396.964 100.258 394.352 93.657 389.051 88.3556C383.229 82.3533 375.204 79.3126 365.313 79.3126H308.512ZM407.137 79.3126V158.439H420.984V79.3126H407.137ZM473.829 79.3126V111.811H427.201V125.658H473.829V158.439H487.393V79.3126H473.829Z" fill="white"/>
<path d="M59.8712 47.6404C114.25 -2.31931 195.934 -4.64534 252.632 38.6954C205.66 15.0557 146.782 21.4714 105.819 59.1378C53.3033 107.386 50.1421 188.705 98.7102 240.705C144.447 289.666 219.797 295.237 272.278 255.453C269.32 258.72 266.171 261.867 262.887 264.889C202.307 320.556 107.714 317.096 51.6977 257.079C-4.36353 197.066 -0.697084 103.306 59.8712 47.6404Z" fill="#1D2671"/>
<path d="M59.8712 47.6404C114.25 -2.31931 195.934 -4.64534 252.632 38.6954C205.66 15.0557 146.782 21.4714 105.819 59.1378C53.3033 107.386 50.1421 188.705 98.7102 240.705C144.447 289.666 219.797 295.237 272.278 255.453C269.32 258.72 266.171 261.867 262.887 264.889C202.307 320.556 107.714 317.096 51.6977 257.079C-4.36353 197.066 -0.697084 103.306 59.8712 47.6404Z" stroke="#1D2671"/>
<path d="M210.582 178.685L199.474 186.448L188.121 205.906L195.885 212.01H171.031V205.345L162.682 191.355L155.016 205.906V212.01H129.088L136.314 205.906L123.448 185.35L114 178.685H147.325L139.708 185.35L148.229 198.069L155.602 185.35V184.227H173.888L182.579 196.849L190.001 184.227L183.604 178.685H210.582Z" fill="white"/>
<path d="M242.857 178.685C251.288 178.685 258.604 180.556 264.806 184.3C271.023 188.043 274.132 192.446 274.132 197.508C274.132 202.212 270.999 206.272 264.732 209.69C258.482 213.092 251.052 214.793 242.442 214.793C233.995 214.793 226.573 213.068 220.177 209.617C213.78 206.15 210.582 202.138 210.582 197.581C210.582 192.422 213.756 187.986 220.104 184.275C226.467 180.548 234.052 178.685 242.857 178.685ZM242.369 184.446C238.902 184.446 236.07 185.577 233.873 187.84C231.692 190.086 230.602 192.991 230.602 196.556C230.602 200.104 231.676 202.952 233.824 205.101C235.973 207.233 238.821 208.299 242.369 208.299C245.934 208.299 248.782 207.233 250.914 205.101C253.062 202.968 254.137 200.12 254.137 196.556C254.137 193.007 253.038 190.102 250.841 187.84C248.644 185.577 245.82 184.446 242.369 184.446Z" fill="white"/>
<path d="M276.646 179.808H317.027L323.131 179.783L330.943 180.296C334.866 180.784 338.048 181.867 340.489 183.543C342.931 185.203 344.151 187.132 344.151 189.329C344.151 193.561 339.326 196.238 329.674 197.361C332.945 198.175 335.452 199.347 337.193 200.877C338.951 202.391 340.619 204.865 342.198 208.299L350.279 213.133H326.646C324.628 208.299 322.813 204.751 321.202 202.488C320.193 201.056 310.691 194.633 307.029 194.633H306.09V205.394L318.321 213.133H288.878V205.394V187.596L276.646 179.808ZM306.09 194.633L317.003 193.748L320.396 193.699C324.075 193.699 325.914 192.487 325.914 190.062C325.914 188.483 325.312 187.425 324.107 186.888C322.903 186.334 320.551 186.058 317.052 186.058H306.09V194.633Z" fill="white"/>
<path d="M415.587 195.286V213.133H362.828V205.418V187.62L350.621 179.808H392.271L380.064 187.62V206.541H400.621L415.587 195.286Z" fill="white"/>
<path d="M429.161 180.882L460.729 179.808C465.725 179.808 469.648 180.166 472.496 180.882C475.361 181.582 478.16 182.876 480.895 184.764C486.168 188.458 488.805 192.535 488.805 196.995C488.805 201.764 486.095 205.646 480.675 208.641C475.255 211.635 468.224 213.133 459.581 213.133H429.161V205.418V187.571V180.882ZM446.373 206.541H454.552C460.313 206.541 464.138 205.914 466.026 204.661C467.931 203.392 468.883 200.853 468.883 197.044C468.883 189.492 464.163 185.716 454.723 185.716L450.529 195.921L446.373 206.541Z" fill="white"/>
<path d="M554.029 179.808L537.742 203.133L542.384 185.716H534.596V205.345L546.827 213.133H505.152L517.384 205.345V185.716H509.596L511.242 203.133L497.95 179.808H554.029Z" fill="white"/>
<path d="M623.553 179.808L608.529 192.576L611.053 185.301H587.542V192.576H600.457L596.663 195.633L600.457 199.168H587.542V206.541H611.053L608.529 199.168L624.529 213.133H570.33V205.418V187.547L558.099 179.808H623.553Z" fill="white"/>
<path d="M683.514 177.562L669.5 196.685C664.357 190.011 670.607 183.177 660.223 183.177C649.822 183.177 644.622 187.075 644.622 194.871C644.622 198.777 646.022 201.601 648.821 203.343C651.637 205.084 656.186 205.955 662.469 205.955C668.393 205.955 673.325 204.995 677.264 203.074C681.219 201.154 683.099 198.802 682.903 196.019C682.903 195.905 682.879 195.75 682.83 195.555C684.539 196.515 685.394 197.874 685.394 199.632C685.394 203.668 682.92 206.932 677.972 209.422C673.04 211.896 666.546 213.133 658.489 213.133C649.228 213.133 641.253 211.416 634.563 207.981C627.874 204.547 624.529 200.454 624.529 195.701C624.529 190.867 627.898 186.546 634.637 182.737C641.375 178.912 649.017 177 657.562 177C664.951 177 671.502 178.4 677.215 181.199L683.514 177.562Z" fill="white"/>
<path d="M727.584 177.562H766.5L754.269 185.325V203.074L766.5 210.887H727.584L737.032 203.074V197.63H717.721V203.074L726 210.887H688.277L700.509 203.074V185.325L688.277 177.562H726L717.721 185.325V189.305L737.032 192.062V185.325L727.584 177.562Z" fill="white"/>
<g filter="url(#filter0_d)">
<path d="M122.495 223.639L766.996 225.139" stroke="black" stroke-width="5" stroke-linecap="round" stroke-linejoin="round"/>
</g>
<defs>
<filter id="filter0_d" x="115.995" y="221.139" width="657.502" height="14.5" filterUnits="userSpaceOnUse" color-interpolation-filters="sRGB">
<feFlood flood-opacity="0" result="BackgroundImageFix"/>
<feColorMatrix in="SourceAlpha" type="matrix" values="0 0 0 0 0 0 0 0 0 0 0 0 0 0 0 0 0 0 127 0"/>
<feOffset dy="4"/>
<feGaussianBlur stdDeviation="2"/>
<feColorMatrix type="matrix" values="0 0 0 0 0 0 0 0 0 0 0 0 0 0 0 0 0 0 0.25 0"/>
<feBlend mode="normal" in2="BackgroundImageFix" result="effect1_dropShadow"/>
<feBlend mode="normal" in="SourceGraphic" in2="effect1_dropShadow" result="shape"/>
</filter>
</defs>
</svg>
